<svg width="1920" height="1080" xmlns="http://www.w3.org/2000/svg">
  <defs>
    <linearGradient id="bgGrad" x1="0%" y1="0%" x2="0%" y2="100%">
      <stop offset="0%" style="stop-color:#003366;stop-opacity:1" />
      <stop offset="50%" style="stop-color:#001a33;stop-opacity:1" />
      <stop offset="100%" style="stop-color:#000814;stop-opacity:1" />
    </linearGradient>
  </defs>
  
  <!-- Background -->
  <rect width="1920" height="1080" fill="url(#bgGrad)"/>
  
  <!-- Animated wave layers -->
  <g opacity="0.15">
    <path d="M0,300 Q480,250 960,300 T1920,300 L1920,1080 L0,1080 Z" fill="#00ccff" opacity="0.1"/>
    <path d="M0,350 Q480,320 960,350 T1920,350 L1920,1080 L0,1080 Z" fill="#0099cc" opacity="0.1"/>
    <path d="M0,400 Q480,370 960,400 T1920,400 L1920,1080 L0,1080 Z" fill="#006699" opacity="0.1"/>
  </g>
  
  <!-- Glowing wave lines -->
  <g stroke-linecap="round" fill="none">
    <path d="M0,300 Q240,270 480,300 T960,300 T1440,300 T1920,300" stroke="#00ffff" stroke-width="2" opacity="0.2"/>
    <path d="M0,320 Q240,290 480,320 T960,320 T1440,320 T1920,320" stroke="#00ccff" stroke-width="2" opacity="0.2"/>
    <path d="M0,340 Q240,310 480,340 T960,340 T1440,340 T1920,340" stroke="#0099cc" stroke-width="2" opacity="0.2"/>
    <path d="M0,360 Q240,330 480,360 T960,360 T1440,360 T1920,360" stroke="#006699" stroke-width="2" opacity="0.15"/>
    <path d="M0,380 Q240,350 480,380 T960,380 T1440,380 T1920,380" stroke="#00ffff" stroke-width="2" opacity="0.2"/>
    
    <path d="M0,420 Q240,390 480,420 T960,420 T1440,420 T1920,420" stroke="#00ccff" stroke-width="1.5" opacity="0.18"/>
    <path d="M0,450 Q240,420 480,450 T960,450 T1440,450 T1920,450" stroke="#0099cc" stroke-width="1.5" opacity="0.18"/>
    <path d="M0,480 Q240,450 480,480 T960,480 T1440,480 T1920,480" stroke="#006699" stroke-width="1.5" opacity="0.15"/>
    <path d="M0,510 Q240,480 480,510 T960,510 T1440,510 T1920,510" stroke="#00ffff" stroke-width="1.5" opacity="0.18"/>
    <path d="M0,540 Q240,510 480,540 T960,540 T1440,540 T1920,540" stroke="#00ccff" stroke-width="1.5" opacity="0.16"/>
    
    <path d="M0,580 Q240,550 480,580 T960,580 T1440,580 T1920,580" stroke="#0099cc" stroke-width="1" opacity="0.14"/>
    <path d="M0,610 Q240,580 480,610 T960,610 T1440,610 T1920,610" stroke="#006699" stroke-width="1" opacity="0.14"/>
    <path d="M0,640 Q240,610 480,640 T960,640 T1440,640 T1920,640" stroke="#00ffff" stroke-width="1" opacity="0.14"/>
    <path d="M0,670 Q240,640 480,670 T960,670 T1440,670 T1920,670" stroke="#00ccff" stroke-width="1" opacity="0.12"/>
    <path d="M0,700 Q240,670 480,700 T960,700 T1440,700 T1920,700" stroke="#0099cc" stroke-width="1" opacity="0.12"/>
  </g>
  
  <!-- Particle dots for depth -->
  <g fill="#00ffff" opacity="0.3">
    <circle cx="150" cy="320" r="2"/>
    <circle cx="450" cy="380" r="1.5"/>
    <circle cx="750" cy="340" r="2"/>
    <circle cx="1050" cy="420" r="1.5"/>
    <circle cx="1350" cy="360" r="2"/>
    <circle cx="1650" cy="400" r="1.5"/>
    <circle cx="300" cy="450" r="1"/>
    <circle cx="600" cy="520" r="1"/>
    <circle cx="900" cy="480" r="1"/>
    <circle cx="1200" cy="540" r="1"/>
    <circle cx="1500" cy="500" r="1"/>
    <circle cx="1800" cy="560" r="1"/>
  </g>
</svg>
